<?xml version="1.0" encoding="UTF-8"?>
<svg xmlns="http://www.w3.org/2000/svg" version="1.1" width="200" height="200" viewBox="0 0 200 200"><rect x="0" y="0" width="200" height="200" fill="#ffffff"/><g transform="scale(8)"><g transform="translate(0,0)"><path fill-rule="evenodd" d="M8 0L8 1L11 1L11 3L10 3L10 2L9 2L9 3L10 3L10 5L9 5L9 6L8 6L8 8L9 8L9 9L8 9L8 10L9 10L9 11L10 11L10 10L11 10L11 11L13 11L13 9L10 9L10 7L11 7L11 6L12 6L12 8L14 8L14 10L15 10L15 11L14 11L14 12L16 12L16 11L17 11L17 9L16 9L16 8L17 8L17 5L16 5L16 7L15 7L15 6L14 6L14 5L15 5L15 4L16 4L16 3L17 3L17 2L15 2L15 1L14 1L14 0L13 0L13 1L12 1L12 0ZM16 0L16 1L17 1L17 0ZM12 2L12 3L13 3L13 2ZM14 2L14 4L13 4L13 5L14 5L14 4L15 4L15 2ZM10 5L10 6L9 6L9 7L10 7L10 6L11 6L11 5ZM13 6L13 7L14 7L14 8L15 8L15 7L14 7L14 6ZM0 8L0 10L5 10L5 8L3 8L3 9L2 9L2 8ZM6 8L6 9L7 9L7 8ZM18 8L18 9L19 9L19 10L18 10L18 12L17 12L17 13L16 13L16 14L15 14L15 13L13 13L13 12L9 12L9 13L8 13L8 11L7 11L7 10L6 10L6 11L7 11L7 12L6 12L6 13L4 13L4 12L5 12L5 11L4 11L4 12L3 12L3 13L1 13L1 11L0 11L0 17L1 17L1 15L3 15L3 17L4 17L4 15L5 15L5 14L6 14L6 15L8 15L8 16L5 16L5 17L8 17L8 18L9 18L9 17L12 17L12 18L10 18L10 19L9 19L9 20L8 20L8 22L9 22L9 21L10 21L10 22L11 22L11 24L10 24L10 25L13 25L13 24L12 24L12 21L13 21L13 22L14 22L14 23L15 23L15 22L17 22L17 21L18 21L18 22L20 22L20 23L22 23L22 24L24 24L24 25L25 25L25 21L24 21L24 20L25 20L25 18L23 18L23 15L21 15L21 16L16 16L16 14L17 14L17 15L20 15L20 14L21 14L21 13L22 13L22 12L23 12L23 14L24 14L24 15L25 15L25 14L24 14L24 12L25 12L25 10L24 10L24 9L25 9L25 8L24 8L24 9L22 9L22 10L21 10L21 9L19 9L19 8ZM9 9L9 10L10 10L10 9ZM22 10L22 11L23 11L23 10ZM20 11L20 13L18 13L18 14L20 14L20 13L21 13L21 11ZM3 13L3 14L4 14L4 13ZM6 13L6 14L7 14L7 13ZM12 13L12 14L9 14L9 16L8 16L8 17L9 17L9 16L10 16L10 15L12 15L12 17L13 17L13 18L14 18L14 19L15 19L15 18L14 18L14 17L13 17L13 16L14 16L14 15L15 15L15 14L13 14L13 13ZM12 14L12 15L13 15L13 14ZM15 16L15 17L16 17L16 16ZM24 16L24 17L25 17L25 16ZM17 17L17 20L20 20L20 17ZM18 18L18 19L19 19L19 18ZM21 18L21 19L22 19L22 21L20 21L20 22L22 22L22 21L23 21L23 20L24 20L24 19L22 19L22 18ZM11 19L11 21L12 21L12 20L13 20L13 21L14 21L14 22L15 22L15 20L13 20L13 19ZM8 23L8 25L9 25L9 23ZM18 23L18 24L16 24L16 25L18 25L18 24L19 24L19 23ZM20 24L20 25L21 25L21 24ZM0 0L0 7L7 7L7 0ZM1 1L1 6L6 6L6 1ZM2 2L2 5L5 5L5 2ZM18 0L18 7L25 7L25 0ZM19 1L19 6L24 6L24 1ZM20 2L20 5L23 5L23 2ZM0 18L0 25L7 25L7 18ZM1 19L1 24L6 24L6 19ZM2 20L2 23L5 23L5 20Z" fill="#000000"/></g></g></svg>
